HIERARCHY
ROOT pelvis
{
  OFFSET 0 100 0
  CHANNELS 6 Xposition Yposition Zposition Zrotation Xrotation Yrotation
  JOINT pelvis_right_femur
  {
    OFFSET -8.772758 -3.034843 2.31998
    CHANNELS 3 Zrotation Xrotation Yrotation
    JOINT right_femur_tibia
    {
      OFFSET -0.07149649 -42.08573 -1.523174
      CHANNELS 3 Zrotation Xrotation Yrotation
      JOINT right_tibia_foot
      {
        OFFSET -0.2003081 -41.61072 -0.8970074
        CHANNELS 3 Zrotation Xrotation Yrotation
        End Site
        {
          OFFSET 0 -2 15
        }
      }
    }
  }
  JOINT pelvis_left_femur
  {
    OFFSET 8.772758 -3.034843 2.31998
    CHANNELS 3 Zrotation Xrotation Yrotation
    JOINT left_femur_tibia
    {
      OFFSET 0.07149649 -42.08573 -1.523174
      CHANNELS 3 Zrotation Xrotation Yrotation
      JOINT left_tibia_foot
      {
        OFFSET 0.6066951 -40.61457 0.3589064
        CHANNELS 3 Zrotation Xrotation Yrotation
        End Site
        {
          OFFSET 0 -2 15
        }
      }
    }
  }
  JOINT pelvis_spine1
  {
    OFFSET 0 4.18052 -1.820256
    CHANNELS 3 Zrotation Xrotation Yrotation
    JOINT spine1
    {
      OFFSET 0 24.76252 -1.604816
      CHANNELS 3 Zrotation Xrotation Yrotation
      JOINT spine2
      {
        OFFSET 0 23.17647 -1.034129
        CHANNELS 3 Zrotation Xrotation Yrotation
        JOINT neck
        {
          OFFSET 0 5.306618 0.6401983
          CHANNELS 3 Zrotation Xrotation Yrotation
          End Site
          {
            OFFSET 0 20 0
          }
        }
      }
      JOINT right_manubrium
      {
        OFFSET -2.73992 17.95577 1
        CHANNELS 3 Zrotation Xrotation Yrotation
        JOINT right_clavicle
        {
          OFFSET -12.52213 3 -1.062945
          CHANNELS 3 Zrotation Xrotation Yrotation
          JOINT right_humerus
          {
            OFFSET -27.37371 -1.703709 -1.750656
            CHANNELS 3 Zrotation Xrotation Yrotation
            JOINT right_radius
            {
              OFFSET -22.33414 -1.281607 3.697082
              CHANNELS 3 Zrotation Xrotation Yrotation
              End Site
              {
                OFFSET -15 0 0
              }
            }
          }
        }
      }
      JOINT left_manubrium
      {
        OFFSET 2.73992 17.95577 1
        CHANNELS 3 Zrotation Xrotation Yrotation
        JOINT left_clavicle
        {
          OFFSET 12.52213 3 -1.062945
          CHANNELS 3 Zrotation Xrotation Yrotation
          JOINT left_humerus
          {
            OFFSET 27.5036 -1.031355 -0.7678377
            CHANNELS 3 Zrotation Xrotation Yrotation
            JOINT left_radius
            {
              OFFSET 21.64259 -1.57069 3.651522
              CHANNELS 3 Zrotation Xrotation Yrotation
              End Site
              {
                OFFSET 15 0 0
              }
            }
          }
        }
      }
    }
  }
}
MOTION
Frames:	21
Frame Time:	0.008333333333333333
105.0654 79.01666 -156.9905 9.762729 -1.779876 -119.2213 0.6265405 -44.32364 7.347438 -0 57.32021 -0 17.52734 -17.37084 6.957123 28.8184 -0.01215709 26.91463 -0 19.63565 -0 -5.95018 -2.720384 22.96671 5.854909 2.70727 -34.13532 8.968645 10.16195 -3.544414 -29.65418 9.356185 25.96862 28.27239 -57.56317 38.84567 26.54577 12.98057 -10.46655 65.28122 34.11807 -8.743979 -0 0 20.17161 2.49845 9.728597 -0.03974164 -15.38218 -1.295061 -16.85634 -10.32439 49.64927 -77.66345 -0 0 -38.66353 -27.16131 -7.167323 -10.68494
105.0249 78.98736 -156.9011 9.78217 -1.780119 -119.2182 0.5213669 -44.32251 7.250089 -0 57.26945 -0 17.51085 -17.33629 6.96891 28.93929 -0.254027 27.07864 -0 20.07822 -0 -5.83526 -2.742982 23.05741 5.926356 2.782242 -34.31511 8.910043 10.16421 -3.553516 -29.93774 9.349069 26.17344 28.37871 -57.68087 39.23883 26.34902 13.68119 -10.40185 66.73267 35.32789 -9.032533 -0 0 22.13547 2.66696 10.38993 0.5750106 -15.0103 -1.210104 -17.47352 -8.942946 50.54745 -79.91107 -0 0 -39.34067 -27.68327 -7.044062 -10.6944
104.9989 79.00789 -156.8583 9.800377 -1.774759 -119.1624 0.4161824 -44.30261 7.128102 -0 57.20455 -0 17.49354 -17.29351 6.972172 29.04633 -0.4953429 27.25219 -0 20.53769 -0 -5.72071 -2.757366 23.13914 5.957792 2.846794 -34.46701 8.846842 10.16536 -3.551449 -30.20999 9.343937 26.36762 28.47731 -57.79337 39.61114 26.14475 14.34092 -10.32513 68.11052 36.51996 -9.305681 -0 0 24.17968 2.786284 11.05282 1.228197 -14.64845 -1.121355 -18.03536 -7.568895 51.36681 -82.06146 -0 0 -40.06441 -28.19024 -6.925818 -10.72144
105.0255 79.00106 -156.787 9.817681 -1.769465 -119.1119 0.2881427 -44.27551 6.978696 -0 57.13125 -0 17.47475 -17.24241 6.96635 29.13409 -0.7534242 27.44778 -0 21.02244 -0 -5.609744 -2.757124 23.22091 5.985492 2.924203 -34.608 8.755944 10.18725 -3.562736 -30.46545 9.345449 26.55588 28.57095 -57.88998 39.96319 25.91105 14.94796 -10.23732 69.38841 37.68138 -9.545756 -0 0 26.27804 2.849021 11.71124 1.918274 -14.33194 -1.00532 -18.5593 -6.23175 52.11968 -84.11205 -0 0 -40.85222 -28.68 -6.810488 -10.77997
104.9622 79.07848 -156.739 9.830875 -1.760032 -119.017 0.1306613 -44.21867 6.789648 -0 57.01531 -0 17.45469 -17.18773 6.952858 29.2247 -1.038971 27.6747 -0 21.50546 -0 -5.504231 -2.739327 23.30913 5.999691 2.97113 -34.67796 8.679183 10.1571 -3.511475 -30.69932 9.356043 26.73351 28.66168 -57.97577 40.29275 25.64426 15.50615 -10.15309 70.53806 38.79744 -9.758537 -0 0 28.39186 2.852675 12.35506 2.63448 -13.98234 -0.9684214 -18.96989 -5.002941 52.72034 -85.95079 -0 0 -41.74141 -29.13776 -6.696853 -10.87974
104.9108 79.0983 -156.6334 9.841786 -1.749093 -118.8963 -0.08830211 -44.13673 6.551921 -0 56.90873 -0 17.43298 -17.12535 6.930847 29.31524 -1.328523 27.91977 -0 22.00462 -0 -5.396402 -2.717214 23.40221 6.01381 3.018251 -34.68815 8.599543 10.11507 -3.417267 -30.91433 9.378765 26.90375 28.74417 -58.04284 40.59759 25.32957 15.99527 -10.06457 71.53423 39.85588 -9.913386 -0 0 30.52957 2.795568 12.97785 3.369927 -13.61657 -0.954748 -19.28054 -3.873342 53.22526 -87.55143 -0 0 -42.67293 -29.57251 -6.589018 -11.00179
104.8799 79.14932 -156.5496 9.846619 -1.742325 -118.7878 -0.3028742 -44.06312 6.296712 -0 56.75381 -0 17.4108 -17.05997 6.903414 29.41731 -1.680784 28.20032 -0 22.49171 -0 -5.292548 -2.679337 23.50338 6.023191 3.083253 -34.68928 8.477854 10.08498 -3.343865 -31.11365 9.408075 27.07044 28.81326 -58.08515 40.87791 24.97944 16.4077 -9.969014 72.37264 40.85526 -9.997075 -0 0 32.68158 2.677861 13.57818 4.119175 -13.30586 -0.9105598 -19.55445 -2.83617 53.67806 -89.00725 -0 0 -43.64969 -29.9809 -6.488988 -11.15308
104.8826 79.17417 -156.4167 9.846612 -1.734063 -118.6585 -0.5380479 -44.00213 6.017157 -0 56.5546 -0 17.38844 -16.99189 6.872348 29.49943 -2.033536 28.5111 -0 22.99978 -0 -5.184736 -2.64124 23.61021 6.014829 3.137873 -34.65998 8.349217 10.05098 -3.266212 -31.29627 9.443757 27.23294 28.86773 -58.10306 41.13204 24.62507 16.76764 -9.885709 73.06471 41.79051 -10.04072 -0 0 34.79564 2.509706 14.14206 4.859357 -13.03042 -0.8690324 -19.76971 -1.919247 54.05751 -90.2602 -0 0 -44.65706 -30.35919 -6.398504 -11.33111
104.8685 79.26142 -156.3395 9.844648 -1.723577 -118.4968 -0.784968 -43.89576 5.717272 -0 56.35796 -0 17.36533 -16.91243 6.838615 29.56791 -2.412032 28.86717 -0 23.51652 -0 -5.077446 -2.596848 23.7295 5.978271 3.186747 -34.60268 8.236877 10.01664 -3.186627 -31.4593 9.480079 27.38805 28.90886 -58.10294 41.36089 24.30074 17.05395 -9.80868 73.58925 42.6605 -10.02154 -0 0 36.83507 2.323604 14.6691 5.566327 -12.78239 -0.8220327 -19.91959 -1.133207 54.37735 -91.29114 -0 0 -45.67842 -30.70444 -6.319726 -11.5331
104.8579 79.38842 -156.2408 9.842028 -1.711552 -118.3087 -1.063732 -43.75972 5.389574 -0 56.15121 -0 17.34111 -16.82158 6.799675 29.59917 -2.767168 29.26399 -0 24.05814 -0 -4.966542 -2.5529 23.85912 5.943874 3.243446 -34.50995 8.133022 9.970284 -3.096778 -31.59992 9.515683 27.53611 28.93851 -58.08437 41.5663 23.99974 17.25057 -9.735348 73.95244 43.46069 -9.913706 -0 0 38.76921 2.124702 15.15857 6.236559 -12.56092 -0.7764972 -19.99783 -0.4958142 54.63755 -92.07626 -0 0 -46.6991 -31.01318 -6.253628 -11.75637
104.8449 79.46856 -156.1243 9.836015 -1.699049 -118.1257 -1.356926 -43.63555 5.038422 -0 55.89954 -0 17.31621 -16.72838 6.754368 29.66258 -3.164724 29.69319 -0 24.57246 -0 -4.855361 -2.501037 23.99572 5.894825 3.30238 -34.38008 8.006496 9.911943 -2.999236 -31.71327 9.554825 27.67951 28.96153 -58.04304 41.75053 23.69009 17.38231 -9.687362 74.14181 44.17511 -9.741249 -0 0 40.4922 1.928354 15.6028 6.843586 -12.36608 -0.7488852 -20.00418 -0.02149395 54.83063 -92.60823 -0 0 -47.71363 -31.28249 -6.202043 -11.99867
104.84 79.52551 -156.0034 9.829217 -1.684507 -117.9413 -1.67824 -43.48363 4.659392 -0 55.64332 -0 17.28985 -16.62577 6.703303 29.74672 -3.591367 30.15231 -0 25.06224 -0 -4.745546 -2.438515 24.13497 5.840439 3.365494 -34.20652 7.856824 9.843853 -2.888359 -31.80155 9.602166 27.81753 28.97554 -57.97726 41.90955 23.37766 17.45174 -9.659999 74.16927 44.81115 -9.503104 -0 0 41.994 1.758713 16.00869 7.376906 -12.19732 -0.7424986 -19.94104 0.2845766 54.95705 -92.88339 -0 0 -48.71041 -31.50804 -6.166537 -12.25709
104.8183 79.64418 -155.8343 9.82025 -1.66708 -117.7424 -2.031955 -43.31624 4.244682 -0 55.34913 -0 17.26241 -16.51939 6.643515 29.81632 -4.04254 30.64651 -0 25.54288 -0 -4.637197 -2.36681 24.27769 5.816268 3.397118 -33.9817 7.70724 9.760727 -2.756833 -31.87318 9.656665 27.95512 28.97998 -57.8863 42.04885 23.1006 17.49434 -9.656139 74.15558 45.40765 -9.242308 -0 0 43.39492 1.606423 16.39771 7.874103 -12.06663 -0.7591924 -19.81813 0.4226087 55.01484 -92.91878 -0 0 -49.68456 -31.68823 -6.148493 -12.532
104.7782 79.74543 -155.7069 9.810779 -1.641911 -117.4665 -2.407345 -43.11926 3.789703 -0 55.04108 -0 17.23413 -16.41486 6.573901 29.87518 -4.486273 31.17843 -0 26.04281 -0 -4.525965 -2.294417 24.42366 5.771765 3.413972 -33.71888 7.558152 9.667258 -2.618549 -31.92852 9.721267 28.09028 28.96706 -57.76667 42.15943 22.86185 17.49988 -9.662574 73.99883 45.94293 -8.948011 -0 0 44.55064 1.522952 16.75662 8.266291 -11.9715 -0.8053851 -19.64772 0.3999743 54.99912 -92.73434 -0 0 -50.62648 -31.82377 -6.148812 -12.8219
104.7583 79.84837 -155.5726 9.798422 -1.612851 -117.1815 -2.806566 -42.9153 3.287912 -0 54.71376 -0 17.20592 -16.31402 6.496505 29.93267 -4.948457 31.74431 -0 26.55447 -0 -4.40989 -2.225088 24.56727 5.710049 3.41743 -33.41512 7.436324 9.538582 -2.464545 -31.97351 9.798536 28.21786 28.92197 -57.61643 42.22602 22.70005 17.46633 -9.661755 73.71649 46.43345 -8.620857 -0 0 45.43161 1.525723 17.08906 8.537198 -11.91355 -0.8938704 -19.43912 0.2130351 54.89702 -92.32973 -0 0 -51.51949 -31.91113 -6.166252 -13.12315
104.757 79.93982 -155.3516 9.785113 -1.582505 -116.892 -3.251708 -42.72002 2.740139 -0 54.36747 -0 17.17645 -16.21665 6.412792 29.971 -5.42775 32.34298 -0 27.07899 -0 -4.289285 -2.159109 24.70608 5.653706 3.463881 -33.10054 7.330899 9.433592 -2.317531 -32.00053 9.879977 28.33048 28.85456 -57.45146 42.25568 22.58657 17.3729 -9.634766 73.27274 46.87624 -8.223548 -0 0 46.02547 1.616245 17.40028 8.688745 -11.92026 -0.9735189 -19.20805 -0.122102 54.74417 -91.73824 -0 0 -52.32958 -31.94106 -6.203615 -13.41967
104.7286 80.02384 -155.2135 9.768999 -1.539625 -116.4965 -3.718997 -42.46874 2.150242 -0 54.01629 -0 17.14591 -16.12066 6.322525 30.02766 -5.922427 32.96933 -0 27.6075 -0 -4.169228 -2.088978 24.83659 5.545773 3.504104 -32.69831 7.241142 9.316352 -2.110498 -31.99677 9.958245 28.42458 28.78069 -57.28252 42.25901 22.53105 17.25858 -9.616712 72.73842 47.27996 -7.815947 -0 0 46.32231 1.793445 17.69342 8.734484 -11.93497 -1.069397 -18.87594 -0.639934 54.5298 -90.86976 -0 0 -53.07473 -31.91516 -6.25998 -13.72637
104.666 80.1247 -155.0052 9.752006 -1.492627 -116.0883 -4.24083 -42.185 1.51483 -0 53.647 -0 17.11427 -16.0237 6.224381 30.09458 -6.432772 33.62282 -0 28.11743 -0 -4.051676 -2.010356 24.95902 5.443158 3.548359 -32.26006 7.176927 9.180035 -1.884422 -31.96369 10.03872 28.50453 28.70707 -57.10761 42.24189 22.50618 17.12571 -9.588007 72.10821 47.65047 -7.387526 -0 0 46.37413 2.053137 17.96917 8.685324 -11.99932 -1.222999 -18.51302 -1.316307 54.20769 -89.80653 -0 0 -53.73804 -31.83207 -6.336694 -14.03977
104.6573 80.22708 -154.8304 9.733179 -1.437059 -115.6303 -4.769145 -41.87192 0.8449845 -0 53.26383 -0 17.08169 -15.92853 6.118244 30.17831 -6.968756 34.29341 -0 28.61456 -0 -3.933522 -1.930145 25.07142 5.303681 3.579713 -31.80632 7.138015 9.039835 -1.665889 -31.92576 10.12193 28.57619 28.60695 -56.91256 42.19 22.53978 16.98222 -9.547584 71.39625 47.99763 -6.952491 -0 0 46.20716 2.392759 18.22667 8.539746 -12.10975 -1.389517 -18.14712 -2.088355 53.81753 -88.61848 -0 0 -54.26876 -31.68832 -6.43709 -14.34072
104.589 80.34344 -154.6253 9.711067 -1.366538 -115.0609 -5.317146 -41.55031 0.1682412 -0 52.89389 -0 17.04824 -15.83452 6.001475 30.26305 -7.523264 34.97569 -0 29.10701 -0 -3.815937 -1.846936 25.16885 5.160703 3.621711 -31.32463 7.138355 8.925652 -1.443034 -31.87367 10.20487 28.63073 28.48905 -56.71118 42.10513 22.61524 16.82729 -9.489773 70.57485 48.31652 -6.505245 -0 0 45.78849 2.803798 18.46288 8.302169 -12.25599 -1.555079 -17.75788 -2.958473 53.36882 -87.27617 -0 0 -54.64889 -31.48349 -6.5636 -14.62586
104.6236 80.42142 -154.4717 9.688617 -1.297193 -114.5307 -5.835511 -41.2098 -0.5288827 -0 52.50084 -0 17.01503 -15.74151 5.877599 30.37747 -8.097093 35.65483 -0 29.58342 -0 -3.701299 -1.757064 25.2534 4.982585 3.653326 -30.84642 7.15364 8.804653 -1.253071 -31.81901 10.28801 28.67148 28.34856 -56.5015 41.98743 22.73783 16.67634 -9.426933 69.71335 48.61861 -6.068249 -0 0 45.13025 3.275913 18.68141 7.993634 -12.46517 -1.73633 -17.393 -3.895494 52.84436 -85.85367 -0 0 -54.85861 -31.2182 -6.716584 -14.88942
